<mxfile host="65bd71144e">
    <diagram id="0zfhdByB7R_Y-H1BKY-e" name="第 1 页">
        <mxGraphModel dx="480" dy="147" grid="1" gridSize="10" guides="1" tooltips="1" connect="1" arrows="1" fold="1" page="1" pageScale="1" pageWidth="827" pageHeight="1169" math="0" shadow="0">
            <root>
                <mxCell id="0"/>
                <mxCell id="1" parent="0"/>
                <mxCell id="2" value="用户" style="shape=umlActor;verticalLabelPosition=bottom;verticalAlign=top;html=1;" vertex="1" parent="1">
                    <mxGeometry x="370" y="10" width="30" height="60" as="geometry"/>
                </mxCell>
                <mxCell id="3" value="分组管理" style="ellipse;" vertex="1" parent="1">
                    <mxGeometry x="260" y="120" width="80" height="40" as="geometry"/>
                </mxCell>
                <mxCell id="4" value="搜索" style="ellipse;" vertex="1" parent="1">
                    <mxGeometry x="460" y="110" width="80" height="40" as="geometry"/>
                </mxCell>
                <mxCell id="5" value="定时提醒" style="ellipse;" vertex="1" parent="1">
                    <mxGeometry x="290" y="220" width="90" height="50" as="geometry"/>
                </mxCell>
                <mxCell id="7" value="" style="endArrow=none;html=1;exitX=0.5;exitY=0;exitDx=0;exitDy=0;entryX=0;entryY=1;entryDx=0;entryDy=0;entryPerimeter=0;" edge="1" parent="1" source="3" target="2">
                    <mxGeometry width="50" height="50" relative="1" as="geometry">
                        <mxPoint x="270" y="150" as="sourcePoint"/>
                        <mxPoint x="380" y="60" as="targetPoint"/>
                    </mxGeometry>
                </mxCell>
                <mxCell id="8" value="" style="endArrow=none;html=1;entryX=1;entryY=1;entryDx=0;entryDy=0;entryPerimeter=0;exitX=0.5;exitY=0;exitDx=0;exitDy=0;" edge="1" parent="1" source="4" target="2">
                    <mxGeometry width="50" height="50" relative="1" as="geometry">
                        <mxPoint x="325" y="130" as="sourcePoint"/>
                        <mxPoint x="380" y="80" as="targetPoint"/>
                    </mxGeometry>
                </mxCell>
                <mxCell id="9" value="便捷管理" style="text;html=1;align=center;verticalAlign=middle;resizable=0;points=[];autosize=1;strokeColor=none;fillColor=none;" vertex="1" parent="1">
                    <mxGeometry x="260" y="10" width="60" height="20" as="geometry"/>
                </mxCell>
                <mxCell id="10" value="" style="endArrow=none;startArrow=none;endFill=0;startFill=0;endSize=8;html=1;verticalAlign=bottom;labelBackgroundColor=none;strokeWidth=3;" edge="1" parent="1">
                    <mxGeometry width="160" relative="1" as="geometry">
                        <mxPoint x="240" y="100" as="sourcePoint"/>
                        <mxPoint x="559.9999999999998" y="100" as="targetPoint"/>
                    </mxGeometry>
                </mxCell>
                <mxCell id="11" value="发送到桌面" style="ellipse;" vertex="1" parent="1">
                    <mxGeometry x="410" y="220" width="90" height="50" as="geometry"/>
                </mxCell>
                <mxCell id="12" value="" style="endArrow=none;html=1;" edge="1" parent="1" source="11" target="2">
                    <mxGeometry width="50" height="50" relative="1" as="geometry">
                        <mxPoint x="510" y="120" as="sourcePoint"/>
                        <mxPoint x="410" y="80" as="targetPoint"/>
                    </mxGeometry>
                </mxCell>
                <mxCell id="13" value="" style="endArrow=none;html=1;" edge="1" parent="1" source="5" target="2">
                    <mxGeometry width="50" height="50" relative="1" as="geometry">
                        <mxPoint x="520" y="130" as="sourcePoint"/>
                        <mxPoint x="385" y="120" as="targetPoint"/>
                    </mxGeometry>
                </mxCell>
            </root>
        </mxGraphModel>
    </diagram>
</mxfile>